<?xml version="1.0" standalone="no"?>
<!DOCTYPE svg PUBLIC "-//W3C//DTD SVG 20010904//EN"
 "http://www.w3.org/TR/2001/REC-SVG-20010904/DTD/svg10.dtd">
<svg version="1.0" xmlns:xlink="http://www.w3.org/1999/xlink" xmlns="http://www.w3.org/2000/svg"
 width="1920.000000pt" height="1080.000000pt" viewBox="0 0 1920.000000 1080.000000"
 preserveAspectRatio="xMidYMid meet">

<g transform="translate(0.000000,1080.000000) scale(0.100000,-0.100000)"
fill="#000000" stroke="none">
<path d="M9233 5964 c-9 -4 -13 -32 -13 -90 0 -46 -2 -84 -4 -84 -3 0 -17 5
-33 11 -61 23 -135 -17 -175 -95 -33 -61 -31 -175 2 -240 40 -78 120 -107 193
-70 21 12 32 13 35 5 2 -6 24 -11 48 -11 l44 0 -2 288 -3 287 -40 2 c-22 1
-46 0 -52 -3z m-32 -264 c17 -9 19 -22 19 -105 0 -103 -7 -115 -64 -115 -47 0
-77 83 -57 158 17 60 58 85 102 62z"/>
<path d="M10421 5957 c-8 -11 -11 -89 -9 -288 l3 -274 38 -3 c21 -2 44 1 50 7
8 6 20 5 37 -4 75 -42 170 6 205 104 44 126 -4 276 -96 301 -39 11 -52 9 -111
-15 -15 -6 -18 3 -20 87 l-3 93 -41 3 c-26 2 -45 -2 -53 -11z m203 -263 c22
-22 29 -56 24 -119 -7 -82 -50 -116 -109 -85 -17 9 -19 22 -19 98 0 85 1 88
28 104 34 22 56 22 76 2z"/>
<path d="M8617 5923 c-6 -11 -157 -514 -157 -525 0 -4 24 -8 53 -8 l53 0 18
70 18 70 69 0 68 0 16 -57 c9 -32 18 -64 20 -70 5 -14 101 -19 108 -5 2 4 -22
95 -55 202 -32 107 -68 225 -79 263 l-20 67 -54 0 c-30 0 -56 -3 -58 -7z m93
-290 c0 -8 -15 -13 -40 -13 -22 0 -40 3 -40 6 0 9 30 127 37 144 5 13 42 -106
43 -137z"/>
<path d="M9595 5792 c-74 -36 -115 -107 -115 -202 0 -176 153 -263 304 -174
17 10 17 12 1 45 -10 19 -19 35 -20 37 -1 1 -18 -5 -38 -13 -52 -22 -75 -19
-108 14 -53 54 -43 61 81 61 l110 0 0 58 c0 140 -106 225 -215 174z m105 -101
c22 -42 14 -51 -50 -51 -47 0 -60 3 -60 15 0 46 89 75 110 36z"/>
<path d="M10066 5800 c-104 -31 -160 -195 -108 -313 40 -90 141 -129 236 -93
62 24 69 35 45 75 -15 24 -24 31 -37 26 -65 -28 -70 -28 -101 -15 -26 11 -61
53 -61 74 0 3 51 7 113 8 l112 3 -1 61 c-1 83 -27 132 -84 162 -47 23 -67 26
-114 12z m86 -107 c10 -9 18 -24 18 -35 0 -16 -8 -18 -65 -18 -57 0 -64 2 -58
18 18 50 69 68 105 35z"/>
</g>
</svg>
